REM DIRINDEX 1\2,1\3,1\4
REM DIRNAME cjc151,folder01,folder02,folder03
TITLE ""
FILE "168 168_TOEFL_3900.mp3" MP3
  TRACK 01 AUDIO
    TITLE "2:cjc151_7323"
    INDEX 01 00:00:00
  TRACK 02 AUDIO
    TITLE "0:"
    INDEX 01 00:01:40
  TRACK 03 AUDIO
    TITLE "3:cjc151_7324"
    INDEX 01 00:03:17
  TRACK 04 AUDIO
    TITLE "0:"
    INDEX 01 00:06:51
  TRACK 05 AUDIO
    TITLE "2:cjc151_7325"
    INDEX 01 00:08:30
  TRACK 06 AUDIO
    TITLE "0:"
    INDEX 01 00:09:47
  TRACK 07 AUDIO
    TITLE "3:cjc151_7326"
    INDEX 01 00:11:25
  TRACK 08 AUDIO
    TITLE "0:"
    INDEX 01 00:15:19
  TRACK 09 AUDIO
    TITLE "2:cjc151_7327"
    INDEX 01 00:17:10
  TRACK 10 AUDIO
    TITLE "0:"
    INDEX 01 00:18:29
  TRACK 11 AUDIO
    TITLE "3:cjc151_7328"
    INDEX 01 00:20:10
  TRACK 12 AUDIO
    TITLE "0:"
    INDEX 01 00:23:48
  TRACK 13 AUDIO
    TITLE "2:cjc151_7329"
    INDEX 01 00:25:35
  TRACK 14 AUDIO
    TITLE "0:"
    INDEX 01 00:26:42
  TRACK 15 AUDIO
    TITLE "3:cjc151_7330"
    INDEX 01 00:28:19
  TRACK 16 AUDIO
    TITLE "0:"
    INDEX 01 00:32:39
  TRACK 17 AUDIO
    TITLE "2:cjc151_7331"
    INDEX 01 00:34:18
  TRACK 18 AUDIO
    TITLE "0:"
    INDEX 01 00:35:15
  TRACK 19 AUDIO
    TITLE "3:cjc151_7332"
    INDEX 01 00:36:68
  TRACK 20 AUDIO
    TITLE "0:"
    INDEX 01 00:40:58
  TRACK 21 AUDIO
    TITLE "2:cjc151_7333"
    INDEX 01 00:42:37
  TRACK 22 AUDIO
    TITLE "0:"
    INDEX 01 00:43:66
  TRACK 23 AUDIO
    TITLE "3:cjc151_7334"
    INDEX 01 00:45:45
  TRACK 24 AUDIO
    TITLE "0:"
    INDEX 01 00:49:08
  TRACK 25 AUDIO
    TITLE "2:cjc151_7335"
    INDEX 01 00:50:62
  TRACK 26 AUDIO
    TITLE "0:"
    INDEX 01 00:52:18
  TRACK 27 AUDIO
    TITLE "3:cjc151_7336"
    INDEX 01 00:53:74
  TRACK 28 AUDIO
    TITLE "0:"
    INDEX 01 00:57:45
  TRACK 29 AUDIO
    TITLE "2:cjc151_7337"
    INDEX 01 00:59:26
  TRACK 30 AUDIO
    TITLE "0:"
    INDEX 01 01:00:66
  TRACK 31 AUDIO
    TITLE "3:cjc151_7338"
    INDEX 01 01:02:46
  TRACK 32 AUDIO
    TITLE "0:"
    INDEX 01 01:06:42
  TRACK 33 AUDIO
    TITLE "2:cjc151_7339"
    INDEX 01 01:08:21
  TRACK 34 AUDIO
    TITLE "0:"
    INDEX 01 01:09:56
  TRACK 35 AUDIO
    TITLE "3:cjc151_7340"
    INDEX 01 01:11:37
  TRACK 36 AUDIO
    TITLE "0:"
    INDEX 01 01:15:46
  TRACK 37 AUDIO
    TITLE "2:cjc151_7341"
    INDEX 01 01:17:26
  TRACK 38 AUDIO
    TITLE "0:"
    INDEX 01 01:19:38
  TRACK 39 AUDIO
    TITLE "3:cjc151_7342"
    INDEX 01 01:21:20
  TRACK 40 AUDIO
    TITLE "0:"
    INDEX 01 01:25:13
  TRACK 41 AUDIO
    TITLE "2:cjc151_7343"
    INDEX 01 01:26:70
  TRACK 42 AUDIO
    TITLE "0:"
    INDEX 01 01:28:18
  TRACK 43 AUDIO
    TITLE "3:cjc151_7344"
    INDEX 01 01:29:72
  TRACK 44 AUDIO
    TITLE "0:"
    INDEX 01 01:33:38
  TRACK 45 AUDIO
    TITLE "2:cjc151_7345"
    INDEX 01 01:35:20
  TRACK 46 AUDIO
    TITLE "0:"
    INDEX 01 01:36:47
  TRACK 47 AUDIO
    TITLE "3:cjc151_7346"
    INDEX 01 01:38:26
  TRACK 48 AUDIO
    TITLE "0:"
    INDEX 01 01:43:13
  TRACK 49 AUDIO
    TITLE "2:cjc151_7347"
    INDEX 01 01:44:66
  TRACK 50 AUDIO
    TITLE "0:"
    INDEX 01 01:46:18
  TRACK 51 AUDIO
    TITLE "3:cjc151_7348"
    INDEX 01 01:47:72
  TRACK 52 AUDIO
    TITLE "0:"
    INDEX 01 01:52:40
  TRACK 53 AUDIO
    TITLE "2:cjc151_7349"
    INDEX 01 01:54:19
  TRACK 54 AUDIO
    TITLE "0:"
    INDEX 01 01:56:22
  TRACK 55 AUDIO
    TITLE "3:cjc151_7350"
    INDEX 01 01:57:74
  TRACK 56 AUDIO
    TITLE "0:"
    INDEX 01 02:01:45
  TRACK 57 AUDIO
    TITLE "2:cjc151_7351"
    INDEX 01 02:03:22
  TRACK 58 AUDIO
    TITLE "0:"
    INDEX 01 02:04:39
  TRACK 59 AUDIO
    TITLE "3:cjc151_7352"
    INDEX 01 02:06:18
  TRACK 60 AUDIO
    TITLE "0:"
    INDEX 01 02:10:43
  TRACK 61 AUDIO
    TITLE "2:cjc151_7353"
    INDEX 01 02:12:25
  TRACK 62 AUDIO
    TITLE "0:"
    INDEX 01 02:14:04
  TRACK 63 AUDIO
    TITLE "3:cjc151_7354"
    INDEX 01 02:15:58
  TRACK 64 AUDIO
    TITLE "0:"
    INDEX 01 02:20:12
  TRACK 65 AUDIO
    TITLE "2:cjc151_7355"
    INDEX 01 02:21:67
  TRACK 66 AUDIO
    TITLE "0:"
    INDEX 01 02:23:27
  TRACK 67 AUDIO
    TITLE "3:cjc151_7356"
    INDEX 01 02:25:04
  TRACK 68 AUDIO
    TITLE "0:"
    INDEX 01 02:28:53
  TRACK 69 AUDIO
    TITLE "2:cjc151_7357"
    INDEX 01 02:30:30
  TRACK 70 AUDIO
    TITLE "0:"
    INDEX 01 02:32:25
  TRACK 71 AUDIO
    TITLE "3:cjc151_7358"
    INDEX 01 02:34:05
  TRACK 72 AUDIO
    TITLE "0:"
    INDEX 01 02:37:66
  TRACK 73 AUDIO
    TITLE "2:cjc151_7359"
    INDEX 01 02:39:41
  TRACK 74 AUDIO
    TITLE "0:"
    INDEX 01 02:41:07
  TRACK 75 AUDIO
    TITLE "3:cjc151_7360"
    INDEX 01 02:42:61
  TRACK 76 AUDIO
    TITLE "0:"
    INDEX 01 02:46:33
  TRACK 77 AUDIO
    TITLE "2:cjc151_7361"
    INDEX 01 02:48:11
  TRACK 78 AUDIO
    TITLE "0:"
    INDEX 01 02:49:32
  TRACK 79 AUDIO
    TITLE "3:cjc151_7362"
    INDEX 01 02:51:09
  TRACK 80 AUDIO
    TITLE "0:"
    INDEX 01 02:54:29
  TRACK 81 AUDIO
    TITLE "2:cjc151_7363"
    INDEX 01 02:56:06
  TRACK 82 AUDIO
    TITLE "0:"
    INDEX 01 02:57:21
  TRACK 83 AUDIO
    TITLE "3:cjc151_7364"
    INDEX 01 02:58:74
  TRACK 84 AUDIO
    TITLE "0:"
    INDEX 01 03:02:50
  TRACK 85 AUDIO
    TITLE "2:cjc151_7365"
    INDEX 01 03:04:31
  TRACK 86 AUDIO
    TITLE "0:"
    INDEX 01 03:05:45
  TRACK 87 AUDIO
    TITLE "3:cjc151_7366"
    INDEX 01 03:07:18
  TRACK 88 AUDIO
    TITLE "0:"
    INDEX 01 03:11:35
